<svg width="30" height="30" viewBox="0 0 30 30" fill="none" xmlns="http://www.w3.org/2000/svg">
<path d="M30 4.88563C28.8844 5.375 27.6956 5.69937 26.4562 5.85687C27.7312 5.09562 28.7044 3.89937 29.1619 2.4575C27.9731 3.16625 26.6606 3.66688 25.2619 3.94625C24.1331 2.74438 22.5244 2 20.7694 2C17.3644 2 14.6231 4.76375 14.6231 8.15188C14.6231 8.63938 14.6644 9.10812 14.7656 9.5544C9.6525 9.305 5.12813 6.85438 2.08875 3.12125C1.55812 4.04188 1.24688 5.09562 1.24688 6.23C1.24688 8.36 2.34375 10.2481 3.97875 11.3412C2.99062 11.3225 2.02125 11.0356 1.2 10.5837C1.2 10.6025 1.2 10.6269 1.2 10.6512C1.2 13.64 3.33187 16.1225 6.1275 16.6944C5.62687 16.8313 5.08125 16.8969 4.515 16.8969C4.12125 16.8969 3.72375 16.8744 3.35062 16.7919C4.1475 19.2275 6.40875 21.0181 9.0975 21.0763C7.005 22.7131 4.34812 23.6994 1.47188 23.6994C0.9675 23.6994 0.48375 23.6769 0 23.615C2.72438 25.3719 5.95312 26.375 9.435 26.375C20.7525 26.375 26.94 17 26.94 8.87375C26.94 8.60187 26.9306 8.33938 26.9175 8.07875C28.1381 7.2125 29.1637 6.13063 30 4.88563Z" fill="#393939"/>
</svg>
